<?xml version="1.0" encoding="utf-8"?>
<!-- Generator: Adobe Illustrator 19.1.0, SVG Export Plug-In . SVG Version: 6.00 Build 0)  -->
<svg version="1.1" id="Layer_1" xmlns="http://www.w3.org/2000/svg" xmlns:xlink="http://www.w3.org/1999/xlink" x="0px" y="0px"
	 viewBox="0 0 600 325" style="enable-background:new 0 0 600 325;" xml:space="preserve">
<style type="text/css">
	.st0{fill:#2375D7;}
</style>
<polygon class="st0" points="15.5,64.2 27,73.5 41.2,69.2 36,83 44.4,95.2 29.6,94.5 20.7,106.3 16.8,92 2.8,87.1 15.2,79 "/>
<polygon class="st0" points="552,1.3 570,15.7 592.2,9 584,30.7 597.2,49.7 574.1,48.6 560.1,67 554,44.7 532.2,37.1 551.5,24.4 "/>
<polygon class="st0" points="268.6,270.2 283.1,281.8 300.9,276.5 294.3,293.8 304.9,309.1 286.4,308.2 275.2,323 270.2,305.1 
	252.7,299 268.2,288.8 "/>
</svg>
